# xmcd
#
# Track frame offsets:
#   150
#   11432
#   24779
#   41382
#   53846
#   68832
#   85341
#   98827
#   114315
#   127438
#   140091
#   154819
#   168093
#
# Disc length: 2611 seconds
#
# Revision: 0
# Processed by: cddbd v1.5.1PL2 Copyright (c) Steve Scherf et al.
# Submitted via: GXTranscoder 2.24.2965
#
DISCID=a30a310d
DTITLE=Miossec - Boire
DYEAR=1900
DGENRE=chanson
TTITLE0=Non non non non je ne suis pas saoul
TTITLE1=Regarde un peu la France
TTITLE2=Le cul par terre
TTITLE3=Merci pour la joie
TTITLE4=Crachons veux tu bien
TTITLE5=Evoluer en 3eme division
TTITLE6=La vieille
TTITLE7=Recouvrance
TTITLE8=Des moments de plaisir
TTITLE9=La fille a qui je pense
TTITLE10=Gilles
TTITLE11=Combien t'es beau , combien t'es belle
TTITLE12=Que devient ton poing quand tu tends les doigts
EXTD=
EXTT0=
EXTT1=
EXTT2=
EXTT3=
EXTT4=
EXTT5=
EXTT6=
EXTT7=
EXTT8=
EXTT9=
EXTT10=
EXTT11=
EXTT12=
PLAYORDER=
